<?xml version="1.0" standalone="no"?>
<!DOCTYPE svg PUBLIC "-//W3C//DTD SVG 20010904//EN"
 "http://www.w3.org/TR/2001/REC-SVG-20010904/DTD/svg10.dtd">
<svg version="1.0" xmlns="http://www.w3.org/2000/svg"
 width="600.000000pt" height="600.000000pt" viewBox="0 0 600.000000 600.000000"
 preserveAspectRatio="xMidYMid meet">
<g transform="translate(0.000000,600.000000) scale(0.100000,-0.100000)"
fill="#000000" stroke="none">
<path d="M2825 5380 c-1057 -89 -1911 -919 -2061 -2005 -19 -142 -22 -447 -5
-578 57 -433 211 -811 462 -1132 91 -117 281 -308 393 -396 365 -286 810 -462
1251 -494 l80 -6 -41 19 c-22 11 -69 37 -105 59 -42 27 -81 43 -114 47 -63 8
-270 60 -350 88 -379 132 -712 359 -973 663 -285 332 -460 741 -512 1197 -16
134 -8 435 15 568 39 233 102 432 199 635 170 355 418 648 731 864 50 35 89
67 87 73 -1 5 2 7 7 3 6 -3 42 12 80 34 338 191 721 282 1127 268 181 -7 194
-4 194 39 0 36 -23 45 -147 54 -132 11 -188 11 -318 0z m377 -22 c15 -1 25 -5
21 -11 -3 -5 3 -7 15 -3 14 5 21 1 25 -14 7 -29 -6 -33 -81 -25 -72 8 -289 8
-362 0 -25 -3 -69 -7 -98 -10 -29 -2 -57 -7 -61 -9 -8 -5 -80 -17 -113 -19 -9
-1 -14 -5 -11 -10 3 -5 -4 -6 -16 -2 -13 4 -28 2 -36 -5 -8 -7 -33 -13 -55
-13 -22 -1 -40 -5 -40 -9 0 -4 -20 -13 -45 -19 -25 -6 -48 -15 -50 -20 -3 -4
-13 -5 -22 -2 -11 4 -14 3 -9 -5 4 -7 2 -13 -3 -13 -6 -1 -14 -2 -18 -4 -5 -1
-21 -5 -38 -10 -16 -4 -36 -12 -42 -17 -7 -6 -20 -8 -28 -4 -10 3 -13 2 -10
-5 4 -6 -1 -9 -11 -7 -12 2 -18 -2 -16 -10 1 -8 -2 -11 -8 -7 -5 3 -10 1 -10
-4 0 -6 -12 -11 -26 -11 -14 0 -23 -4 -19 -10 4 -7 -3 -7 -22 0 -24 9 -26 8
-11 -3 15 -12 13 -15 -20 -27 -20 -7 -39 -16 -42 -19 -14 -17 -72 -41 -83 -35
-7 5 -6 0 3 -11 8 -10 10 -16 4 -12 -6 3 -20 -2 -30 -12 -11 -9 -25 -16 -31
-14 -6 2 -15 -1 -19 -8 -4 -8 -3 -9 4 -5 7 4 12 5 12 3 0 -8 -74 -51 -82 -49
-5 1 -8 -3 -8 -9 0 -6 -9 -9 -20 -6 -23 6 -36 -8 -19 -19 8 -5 9 -3 4 6 -5 9
-4 11 4 6 14 -9 4 -29 -12 -23 -7 2 -16 -5 -22 -16 -5 -11 -14 -20 -20 -20 -5
0 -16 -8 -23 -19 -7 -10 -18 -15 -24 -12 -6 4 -8 3 -5 -3 4 -6 -4 -20 -17 -32
-20 -19 -24 -20 -36 -6 -7 8 -17 12 -22 9 -5 -3 -1 -15 9 -27 10 -11 14 -18 8
-16 -5 2 -28 -14 -50 -35 -22 -22 -31 -34 -20 -26 20 14 20 14 1 -8 -17 -20
-20 -20 -31 -5 -7 9 -17 13 -23 9 -7 -4 -12 -2 -12 4 0 13 126 140 139 140 5
0 8 -7 7 -16 0 -9 6 -19 14 -21 12 -4 13 -3 1 5 -7 5 -11 14 -7 20 3 6 2 13
-3 17 -6 3 7 21 27 39 25 24 41 31 48 25 8 -7 11 -4 10 8 0 11 5 17 16 17 10
-1 16 2 13 6 -7 11 62 70 81 70 8 0 12 4 9 10 -3 6 1 7 9 4 9 -4 18 1 22 10 3
9 10 16 15 16 5 0 18 9 30 21 11 11 27 18 35 15 9 -3 12 -1 9 4 -3 6 2 13 12
17 10 4 21 11 25 17 4 6 12 5 21 -2 12 -10 15 -9 13 5 -1 12 10 21 32 28 18 6
29 15 25 20 -5 4 -2 5 6 0 9 -5 18 -2 25 7 6 8 16 16 21 18 6 1 28 12 50 23
22 11 45 21 50 22 6 0 21 6 35 12 53 23 201 74 223 77 12 1 35 8 50 14 16 7
33 9 39 6 7 -5 8 -2 3 6 -5 8 -3 11 6 8 8 -3 29 1 48 8 18 8 50 14 70 14 20 0
52 4 71 9 19 5 80 13 135 16 55 4 101 8 102 9 2 1 60 1 130 -2 71 -2 140 -4
155 -4z m-1806 -731 c20 7 18 -26 -3 -49 -20 -22 -36 -23 -54 -2 -11 14 -10
19 8 34 12 10 21 20 19 23 -2 2 1 1 7 -3 5 -5 16 -6 23 -3z m-64 -66 c-1 -7 2
-10 7 -7 18 12 23 -16 6 -32 -10 -10 -15 -11 -11 -4 4 6 2 12 -3 12 -6 0 -11
-9 -11 -21 0 -27 -58 -101 -72 -93 -6 4 -8 2 -5 -3 4 -6 0 -16 -8 -23 -8 -7
-12 -16 -9 -21 3 -5 1 -9 -5 -9 -5 0 -11 3 -14 8 -2 4 -2 1 0 -7 2 -8 -7 -25
-19 -39 -13 -14 -17 -22 -9 -17 8 4 0 -13 -17 -38 -18 -25 -32 -50 -32 -56 0
-6 -4 -11 -10 -11 -5 0 -10 -7 -10 -15 0 -8 -4 -15 -10 -15 -5 0 -10 -10 -10
-22 0 -21 0 -21 -22 -2 l-21 19 18 -27 c16 -26 11 -37 -10 -20 -6 4 -7 3 -3
-2 12 -16 9 -28 -4 -20 -10 6 -10 4 0 -8 11 -14 11 -18 0 -25 -7 -4 -13 -12
-14 -18 -3 -23 -17 -55 -25 -55 -5 0 -9 -9 -9 -21 0 -11 -4 -18 -9 -15 -5 4
-7 -3 -4 -15 4 -12 0 -25 -7 -29 -8 -5 -15 -18 -17 -31 -2 -12 -8 -28 -13 -34
-5 -7 -7 -15 -4 -18 4 -4 -1 -18 -10 -32 -10 -15 -15 -33 -12 -41 3 -8 2 -13
-3 -10 -5 3 -14 -22 -21 -57 -7 -34 -15 -69 -17 -77 -2 -8 -7 -34 -10 -57 -3
-24 -8 -43 -12 -43 -3 0 -7 -10 -7 -22 -2 -31 -13 -109 -19 -128 -22 -71 -18
-577 4 -604 5 -6 9 -22 9 -36 1 -21 14 -92 49 -262 3 -16 10 -28 15 -28 6 0 8
-7 4 -15 -3 -8 -1 -15 5 -15 6 0 8 -7 5 -16 -3 -9 2 -35 13 -58 11 -22 22 -54
26 -69 3 -17 10 -25 17 -21 6 4 8 3 4 -4 -3 -5 10 -44 29 -86 19 -41 33 -81
31 -88 -1 -7 -1 -10 1 -6 7 12 26 -12 56 -70 15 -29 25 -58 21 -64 -4 -7 -3
-8 4 -4 7 4 12 1 12 -8 0 -8 6 -16 13 -19 8 -3 7 -10 -7 -26 -19 -20 -43 -30
-32 -12 3 5 -1 11 -9 15 -8 3 -15 10 -15 16 0 6 5 8 12 4 7 -4 8 -3 4 5 -4 6
-11 9 -14 7 -4 -2 -22 22 -40 55 -25 46 -29 57 -15 52 15 -6 16 -5 3 9 -8 9
-18 14 -22 12 -3 -2 -9 9 -13 26 -4 16 -10 30 -13 30 -9 0 -48 85 -58 124 -5
21 -4 27 5 22 17 -11 13 0 -6 15 -15 12 -16 12 -8 -1 5 -10 5 -12 -2 -5 -11
11 -44 98 -50 130 -12 69 -16 85 -25 85 -5 0 -8 6 -5 13 2 6 0 23 -5 37 -5 14
-13 45 -18 70 -5 25 -12 56 -15 70 -15 65 -33 189 -33 225 -3 155 0 342 5 387
3 29 6 75 6 101 0 26 3 43 7 36 4 -6 8 9 9 32 0 24 3 53 6 64 4 18 34 155 54
249 5 21 14 42 20 45 6 4 13 21 14 38 1 17 6 29 11 25 5 -3 7 2 3 11 -3 9 0
23 8 31 8 7 12 16 9 19 -4 3 -3 11 1 17 6 9 10 9 16 -1 6 -9 7 -2 3 18 -5 25
-3 34 10 39 9 3 13 10 10 15 -3 6 8 36 25 68 16 32 27 62 23 66 -4 5 -1 5 6 1
6 -4 13 -2 13 3 3 20 5 26 23 64 10 20 23 37 28 37 6 0 8 6 5 14 -3 8 11 33
31 57 20 24 30 39 22 34 -8 -5 0 9 17 31 18 23 29 45 25 49 -4 5 -2 6 4 2 5
-3 18 10 29 29 10 19 21 34 26 34 4 0 17 16 28 36 13 22 27 34 35 31 10 -4 12
0 8 15 -4 15 -1 19 9 16 8 -3 13 -11 11 -17z m-162 -2718 c0 -14 2 -15 9 -4 7
11 10 9 16 -8 3 -11 11 -21 16 -21 5 0 8 -3 7 -7 -1 -5 3 -18 10 -30 7 -13 10
-23 6 -23 -3 0 -1 -7 6 -15 7 -8 16 -12 21 -9 5 3 13 -5 18 -18 6 -13 10 -19
10 -14 1 5 10 -3 22 -18 11 -14 17 -31 13 -37 -4 -7 -3 -9 4 -5 6 3 15 -2 21
-11 6 -10 11 -14 11 -10 0 5 12 -5 26 -22 14 -17 23 -35 19 -41 -3 -5 0 -7 7
-5 19 7 62 -40 52 -56 -5 -9 -2 -11 9 -6 9 3 17 3 19 -1 2 -4 18 -19 36 -34
19 -16 30 -28 25 -28 -5 0 -15 6 -22 13 -11 10 -13 9 -7 -1 4 -7 22 -18 40
-26 17 -7 44 -27 58 -45 15 -17 31 -31 37 -31 6 0 15 -8 20 -18 5 -10 22 -24
38 -32 15 -8 37 -23 47 -32 10 -10 24 -15 29 -11 6 4 7 1 3 -6 -5 -7 -14 -10
-20 -8 -7 3 -13 0 -13 -7 0 -6 8 -12 18 -12 10 0 15 4 13 8 -8 13 11 9 25 -4
11 -11 13 -10 7 2 -5 9 -2 8 7 -2 8 -10 18 -18 24 -18 5 0 14 -5 21 -12 9 -9
7 -15 -6 -25 -15 -12 -14 -13 7 -2 20 9 26 8 33 -5 5 -9 14 -16 21 -16 7 0 6
4 -3 10 -8 5 -10 10 -4 10 16 0 64 -47 56 -54 -3 -4 1 -4 10 -1 9 4 19 1 23
-4 3 -6 11 -9 16 -6 5 4 9 1 9 -5 0 -6 5 -8 11 -5 5 4 19 -1 29 -10 10 -9 23
-14 28 -11 6 3 12 -1 16 -9 3 -8 15 -15 26 -15 13 0 19 -4 14 -11 -4 -8 1 -9
16 -4 15 5 20 4 16 -4 -5 -7 2 -11 18 -11 14 0 28 -4 31 -10 3 -5 17 -10 31
-10 13 0 24 -4 24 -8 0 -5 7 -9 15 -9 25 0 95 -26 90 -33 -2 -4 8 -7 23 -7 15
0 36 -3 47 -6 52 -16 101 -28 115 -28 8 0 43 -7 78 -15 34 -8 67 -12 74 -8 6
4 8 3 5 -3 -3 -5 10 -17 29 -26 31 -15 39 -37 13 -37 -6 0 -7 5 -3 11 4 7 -1
7 -16 -1 -20 -11 -22 -10 -16 5 5 13 3 15 -6 8 -13 -9 -40 -9 -103 1 -16 2
-43 5 -60 5 -22 1 -26 4 -15 11 10 6 6 9 -15 8 -33 -1 -91 10 -115 22 -8 4
-55 20 -105 36 -49 15 -94 31 -99 36 -6 4 -18 8 -28 8 -10 0 -18 5 -18 11 0 5
-4 8 -10 4 -11 -7 -50 14 -68 38 -7 9 -18 17 -24 17 -7 0 -3 -7 8 -16 10 -8
15 -14 9 -11 -60 22 -74 30 -68 40 3 5 1 7 -5 4 -14 -10 -42 2 -42 18 0 7 -7
16 -16 19 -9 3 -12 2 -8 -5 3 -6 -8 -3 -25 5 -17 9 -31 21 -31 27 0 6 -7 9
-15 5 -8 -3 -15 -1 -15 4 0 6 -6 10 -14 10 -7 0 -19 7 -26 15 -7 8 -17 12 -23
8 -5 -3 -7 -1 -4 4 4 6 -9 19 -29 28 -51 24 -124 81 -116 91 4 4 0 5 -9 1 -17
-6 -53 28 -44 42 7 12 -43 43 -55 36 -6 -4 -13 1 -16 9 -3 9 -10 16 -15 16 -6
0 -23 13 -38 29 -16 16 -32 28 -35 25 -3 -2 -4 -1 -1 3 8 10 -16 33 -29 26 -6
-3 -8 -3 -5 1 4 4 -10 24 -30 45 -76 81 -191 216 -191 226 0 3 -9 14 -21 26
-13 13 -18 28 -15 42 3 12 3 16 0 9 -5 -10 -9 -10 -20 -1 -17 14 -18 31 -2 47
17 17 28 15 28 -5z m90 -103 c0 -5 -2 -10 -4 -10 -3 0 -8 5 -11 10 -3 6 -1 10
4 10 6 0 11 -4 11 -10z m330 -421 c0 -6 -4 -7 -10 -4 -5 3 -10 11 -10 16 0 6
5 7 10 4 6 -3 10 -11 10 -16z"/>
<path d="M2555 5310 c-3 -6 1 -7 9 -4 18 7 21 14 7 14 -6 0 -13 -4 -16 -10z"/>
<path d="M2210 5174 c-17 -10 -18 -13 -5 -8 11 3 25 7 32 7 7 0 10 4 7 9 -6
10 -4 10 -34 -8z"/>
<path d="M2155 5169 c-11 -16 -1 -19 13 -3 7 8 8 14 3 14 -5 0 -13 -5 -16 -11z"/>
<path d="M2073 5135 c0 -8 4 -12 9 -9 5 3 6 10 3 15 -9 13 -12 11 -12 -6z"/>
<path d="M1825 5011 c-3 -5 -2 -12 3 -15 5 -3 9 1 9 9 0 17 -3 19 -12 6z"/>
<path d="M1699 4923 c-13 -16 -12 -17 4 -4 9 7 17 15 17 17 0 8 -8 3 -21 -13z"/>
<path d="M1574 4818 c-10 -13 -12 -17 -4 -11 8 6 18 12 23 12 8 1 11 11 4 17
-2 2 -12 -6 -23 -18z"/>
<path d="M1406 4658 c3 -5 10 -6 15 -3 13 9 11 12 -6 12 -8 0 -12 -4 -9 -9z"/>
<path d="M1230 4455 c-7 -9 -10 -18 -7 -21 3 -3 10 4 17 15 13 25 8 27 -10 6z"/>
<path d="M861 2484 c0 -11 3 -14 6 -6 3 7 2 16 -1 19 -3 4 -6 -2 -5 -13z"/>
<path d="M1076 1965 c-9 -26 -7 -32 5 -12 6 10 9 21 6 23 -2 3 -7 -2 -11 -11z"/>
<path d="M1231 1703 c7 -12 15 -20 18 -17 3 2 -3 12 -13 22 -17 16 -18 16 -5
-5z"/>
<path d="M1350 1596 c0 -2 7 -7 16 -10 8 -3 12 -2 9 4 -6 10 -25 14 -25 6z"/>
<path d="M1400 1516 c0 -2 8 -10 18 -17 15 -13 16 -12 3 4 -13 16 -21 21 -21
13z"/>
<path d="M1475 1459 c-4 -6 -5 -12 -2 -15 2 -3 7 2 10 11 7 17 1 20 -8 4z"/>
<path d="M1480 1423 c0 -5 11 -16 25 -26 17 -12 26 -14 31 -5 4 7 3 8 -4 4 -6
-4 -17 2 -24 14 -13 20 -28 27 -28 13z"/>
<path d="M2279 951 c11 -7 11 -9 0 -14 -8 -2 -2 -4 14 -3 24 1 25 2 10 14 -9
6 -22 12 -27 12 -6 0 -5 -4 3 -9z"/>
<path d="M3982 5338 c-5 -7 -10 -66 -9 -133 0 -144 -17 -225 -75 -342 -63
-126 -164 -243 -278 -320 -72 -48 -235 -127 -360 -172 -139 -52 -285 -123
-378 -185 -71 -48 -144 -116 -124 -116 6 0 16 8 21 18 6 9 11 13 11 9 0 -4 10
2 22 13 12 11 28 18 35 16 8 -3 10 1 6 11 -5 13 -2 15 12 9 11 -4 16 -4 12 0
-8 8 22 33 42 34 11 0 11 -3 0 -17 -11 -15 -11 -16 1 -5 21 18 32 14 18 -7 -7
-11 -16 -17 -20 -15 -4 3 -8 0 -8 -5 0 -6 -4 -11 -10 -11 -5 0 -7 8 -4 18 5
14 4 14 -4 2 -6 -8 -9 -17 -7 -20 2 -3 -15 -21 -37 -40 -22 -19 -52 -46 -67
-60 -14 -13 -32 -23 -38 -22 -8 2 -10 -4 -6 -15 3 -10 3 -15 -2 -11 -4 4 -15
-7 -24 -25 -9 -17 -23 -32 -31 -32 -8 0 -14 -8 -12 -17 1 -9 -5 -27 -15 -38
-10 -12 -26 -31 -36 -43 -10 -11 -20 -32 -24 -45 -4 -18 -8 -21 -15 -10 -6 9
-7 5 -3 -11 5 -17 4 -22 -5 -16 -8 5 -11 4 -7 -2 4 -6 -4 -22 -17 -36 -13 -13
-26 -32 -29 -42 -4 -9 -11 -14 -16 -11 -5 3 -7 -3 -4 -14 4 -15 1 -18 -15 -15
-16 3 -20 0 -16 -13 4 -10 -5 -5 -21 12 -26 28 -27 28 -44 10 -38 -39 -119
-94 -226 -154 -69 -39 -145 -90 -203 -139 -43 -34 -112 -129 -112 -153 -1 -45
-66 -130 -226 -291 -101 -102 -180 -190 -194 -216 -30 -60 -24 -120 23 -214
45 -90 105 -153 161 -168 22 -6 44 -16 48 -23 4 -6 8 -6 8 -1 0 20 -16 31 -57
43 -24 7 -49 20 -55 28 -7 9 -24 27 -38 41 -14 14 -24 29 -23 34 2 5 -2 9 -8
9 -6 0 -8 7 -5 16 3 8 2 13 -3 10 -7 -5 -17 8 -26 34 -1 3 -6 16 -12 30 -5 14
-11 50 -12 80 -2 50 2 60 39 110 22 30 105 118 183 195 142 139 184 188 192
222 10 43 33 95 53 120 12 15 22 33 22 39 0 7 9 10 23 8 12 -2 17 -2 10 2 -8
4 -4 14 15 33 21 22 31 26 47 18 16 -8 18 -7 7 4 -10 11 2 22 63 61 42 26 78
48 81 48 3 0 32 18 65 40 64 42 75 47 63 28 -4 -7 -3 -8 5 -4 6 4 9 12 6 17
-4 5 -2 9 4 9 5 0 23 12 40 26 17 14 31 23 31 19 0 -3 7 1 16 9 8 9 20 16 25
16 11 0 12 -17 2 -23 -5 -2 -2 -2 6 0 11 3 11 1 1 -12 -7 -8 -17 -12 -23 -8
-6 3 -7 1 -3 -5 4 -7 2 -12 -4 -12 -6 0 -23 -11 -38 -25 -15 -14 -51 -37 -79
-53 -29 -15 -53 -30 -53 -34 0 -5 -5 -8 -11 -8 -6 0 -51 -27 -100 -59 -50 -33
-96 -59 -102 -57 -7 1 -9 1 -4 -1 14 -9 7 -25 -9 -19 -8 3 -13 2 -10 -2 3 -5
-13 -26 -34 -47 -22 -22 -40 -47 -40 -56 0 -10 -4 -19 -9 -21 -5 -1 -18 -28
-28 -58 -13 -38 -23 -54 -33 -52 -8 2 -12 0 -7 -4 15 -15 -64 -104 -86 -96 -5
1 -6 -2 -2 -7 6 -11 -63 -77 -77 -73 -5 1 -7 -1 -4 -6 6 -10 -175 -198 -186
-194 -5 1 -7 -1 -7 -6 1 -4 1 -18 0 -32 -1 -18 -4 -21 -10 -11 -5 8 -7 -5 -4
-35 7 -61 13 -70 13 -19 0 58 30 97 194 260 176 174 197 200 232 286 47 117
97 165 279 270 50 28 92 56 93 60 2 5 8 9 14 9 20 0 112 67 169 122 30 30 82
95 114 144 107 164 118 179 189 252 39 41 98 94 130 119 77 59 237 143 351
184 86 31 99 32 295 40 239 8 334 20 485 59 303 79 490 208 650 449 46 69 105
148 131 174 59 58 151 105 222 114 50 6 82 23 82 43 0 18 -32 40 -58 40 -95 0
-327 -107 -306 -141 3 -5 -1 -6 -8 -4 -15 6 -69 -60 -140 -174 -100 -158 -210
-256 -379 -342 -162 -81 -370 -129 -564 -129 -106 -1 -113 -13 -12 -23 40 -4
57 -2 57 6 0 8 3 7 9 -2 5 -8 14 -10 21 -6 13 8 55 13 142 18 25 1 45 5 43 8
-2 3 14 10 35 16 22 5 37 7 35 2 -3 -4 -1 -11 5 -14 6 -4 9 -2 8 4 -2 7 28 22
67 35 63 22 72 23 97 10 35 -18 36 -26 3 -20 -14 3 -23 1 -20 -5 4 -5 -2 -9
-12 -9 -10 0 -31 -7 -46 -15 -15 -8 -25 -10 -22 -5 8 13 -8 13 -21 0 -5 -5
-18 -11 -29 -13 -11 -1 -25 -6 -31 -9 -6 -4 -35 -10 -65 -13 -30 -3 -70 -10
-90 -16 -20 -5 -47 -9 -60 -9 -13 1 -116 -1 -229 -3 -180 -4 -209 -7 -240 -24
-19 -11 -41 -18 -47 -16 -7 3 -13 0 -13 -6 0 -6 -7 -7 -17 -4 -11 4 -14 3 -9
-5 10 -16 -6 -15 -23 1 -9 8 -12 8 -7 0 7 -12 -28 -29 -54 -25 -11 2 -12 1 -3
-6 8 -5 -3 -13 -35 -22 -26 -7 -50 -14 -54 -14 -3 -1 -10 -5 -15 -10 -5 -5 -2
-6 7 -1 28 15 -4 -11 -40 -33 l-35 -21 -25 21 c-16 12 -19 18 -8 14 10 -3 20
0 24 6 5 7 2 8 -6 3 -8 -5 -11 -4 -6 3 4 6 13 9 21 5 8 -3 15 0 15 7 0 7 9 9
23 6 12 -3 16 -3 9 0 -16 7 -6 25 11 18 7 -2 22 5 34 16 13 12 29 17 40 14 13
-4 15 -3 5 4 -11 7 -11 10 2 15 9 4 16 1 16 -5 0 -9 3 -9 12 0 7 7 21 12 33
12 15 0 17 3 7 9 -10 6 -7 10 13 15 14 4 30 4 35 1 6 -4 10 1 10 10 0 11 5 15
15 11 8 -3 15 -2 15 3 0 9 64 26 88 24 7 -1 11 1 8 4 -9 9 65 42 82 36 12 -3
13 -2 5 4 -8 6 5 15 39 27 28 10 58 24 66 32 7 8 18 11 24 8 7 -4 8 -2 4 4 -4
7 -2 12 3 12 6 0 30 13 52 30 40 28 72 32 50 6 -8 -9 -7 -13 3 -13 8 0 12 10
11 29 -3 31 4 35 25 16 12 -11 12 -10 1 4 -13 18 -8 38 10 38 6 0 7 -4 4 -10
-3 -5 -3 -16 2 -22 12 -21 12 -39 0 -36 -16 4 -57 -38 -49 -48 4 -4 -1 -4 -10
-1 -10 4 -18 2 -18 -4 0 -6 -4 -7 -10 -4 -5 3 -10 1 -10 -5 0 -6 -5 -8 -12 -4
-6 4 -8 3 -5 -3 3 -5 -11 -18 -31 -28 -20 -10 -31 -20 -24 -22 17 -6 93 39
171 101 141 114 253 284 303 461 27 96 33 320 9 349 -16 19 -54 21 -69 4z m53
-25 c13 -33 17 -214 5 -228 -7 -8 -9 -19 -5 -25 4 -6 1 -17 -5 -25 -6 -8 -9
-24 -5 -37 5 -19 4 -20 -5 -8 -10 12 -11 11 -7 -7 3 -13 1 -26 -5 -29 -5 -3
-8 -14 -5 -24 2 -9 -4 -28 -14 -41 -12 -15 -19 -19 -19 -10 0 8 -3 12 -6 9 -3
-4 0 -16 6 -28 10 -18 9 -21 -1 -15 -9 6 -11 3 -6 -8 4 -12 2 -14 -11 -10 -14
6 -15 4 -4 -9 10 -13 10 -17 -3 -22 -9 -3 -13 -10 -10 -16 3 -5 2 -10 -3 -10
-8 0 -20 -24 -26 -52 -2 -11 -17 -23 -29 -23 -7 -1 -11 -7 -9 -14 1 -8 -2 -10
-10 -5 -19 12 -37 13 -43 4 -3 -5 3 -7 12 -6 10 2 21 -2 25 -8 8 -12 -19 -46
-36 -46 -6 0 -4 5 4 10 13 8 12 12 -4 27 -16 14 -17 14 -7 1 8 -10 8 -18 2
-22 -6 -4 -8 -13 -5 -20 8 -21 -14 -30 -34 -14 -15 12 -16 11 -3 -5 13 -16 12
-20 -4 -35 -10 -9 -15 -12 -11 -5 3 6 2 14 -3 17 -12 8 -11 55 2 63 6 4 7 1 2
-8 -5 -8 -5 -11 0 -7 4 4 15 2 24 -5 14 -11 14 -10 2 6 -15 18 -16 15 53 92 5
6 6 5 1 -4 -5 -10 -4 -12 4 -7 6 4 9 12 6 17 -10 16 6 33 17 18 7 -10 8 -8 4
7 -4 12 1 28 13 41 11 11 17 24 13 28 -4 4 0 12 9 18 9 7 19 24 23 39 3 16 12
27 19 25 6 -1 11 4 9 11 -2 12 6 45 26 102 13 37 22 280 11 280 -5 0 -9 5 -9
10 0 6 3 9 8 9 4 -1 14 -1 22 1 11 1 9 4 -5 10 -19 8 -19 9 1 9 12 1 25 -7 29
-16z m1025 -152 c0 -15 -10 -20 -45 -25 -25 -4 -45 -12 -45 -18 0 -6 -3 -8 -7
-5 -3 4 -22 -3 -42 -14 -20 -11 -27 -14 -17 -5 24 19 8 21 -16 2 -10 -7 -15
-16 -11 -19 3 -4 1 -7 -6 -7 -6 0 -21 -9 -33 -20 -12 -10 -25 -17 -30 -14 -5
3 -7 0 -6 -8 2 -7 -3 -12 -10 -10 -8 1 -11 -1 -9 -5 3 -5 -8 -24 -25 -43 -19
-23 -27 -28 -23 -15 6 18 5 18 -5 2 -6 -9 -8 -22 -5 -27 3 -6 2 -10 -2 -10
-10 0 -49 -62 -45 -72 3 -12 -13 -9 -28 5 -12 10 -12 9 -1 -5 10 -14 8 -23
-13 -55 -26 -40 -82 -108 -70 -84 4 9 3 12 -4 7 -6 -4 -9 -13 -6 -21 4 -9 -2
-18 -12 -22 -11 -4 -25 -15 -32 -25 -7 -10 -18 -15 -24 -12 -6 4 -8 2 -5 -3 8
-12 -43 -54 -96 -79 -20 -10 -33 -22 -30 -27 3 -5 0 -7 -8 -5 -8 3 -13 11 -11
17 1 7 -2 10 -7 6 -6 -3 -8 -12 -5 -19 3 -8 -5 -16 -20 -20 -14 -3 -26 -11
-26 -17 0 -6 -7 -6 -20 1 -11 6 -20 7 -19 3 5 -32 -36 -39 -76 -14 -20 12 -20
12 0 9 11 -2 29 5 40 14 10 10 37 24 60 30 22 6 45 16 50 21 7 7 5 7 -5 2 -12
-6 -13 -5 -3 5 7 7 30 14 52 14 33 1 38 4 35 20 -3 17 31 59 54 68 4 2 6 7 4
12 -2 5 5 3 14 -5 13 -10 15 -10 10 -1 -5 8 6 25 32 48 22 19 45 48 52 65 7
16 15 27 18 24 5 -5 23 21 41 63 6 12 15 22 21 22 6 0 9 4 5 9 -3 6 0 13 7 18
7 4 23 26 35 48 12 22 28 39 36 39 8 -1 14 5 13 14 0 8 5 17 13 20 9 3 11 0 6
-8 -5 -9 -4 -11 4 -6 6 4 9 11 6 16 -8 12 67 71 83 65 7 -3 10 0 7 5 -3 5 7
15 22 21 15 6 37 16 48 21 13 8 20 7 23 -1 2 -6 8 -11 13 -11 6 0 7 4 4 10 -6
9 10 15 65 23 14 3 26 5 28 6 1 0 2 -7 2 -18z m27 -1 c1 -11 -2 -20 -8 -20 -5
0 -9 9 -9 20 0 11 4 20 8 20 4 0 8 -9 9 -20z m-703 -559 c3 -5 -1 -11 -9 -14
-9 -4 -12 -1 -8 9 6 16 10 17 17 5z"/>
<path d="M3920 4821 c0 -6 4 -13 10 -16 6 -3 7 1 4 9 -7 18 -14 21 -14 7z"/>
<path d="M4998 5153 c7 -3 16 -2 19 1 4 3 -2 6 -13 5 -11 0 -14 -3 -6 -6z"/>
<path d="M4888 5123 c7 -3 16 -2 19 1 4 3 -2 6 -13 5 -11 0 -14 -3 -6 -6z"/>
<path d="M4600 4823 c0 -6 8 -17 18 -24 16 -13 16 -13 2 6 -8 11 -16 22 -17
24 -2 2 -3 0 -3 -6z"/>
<path d="M4646 5027 c3 -10 9 -15 12 -12 3 3 0 11 -7 18 -10 9 -11 8 -5 -6z"/>
<path d="M3430 4946 c-111 -39 -175 -77 -300 -182 -207 -174 -387 -445 -529
-798 -66 -163 -103 -236 -142 -281 -24 -27 -29 -39 -20 -48 8 -8 11 -8 11 2 0
11 3 11 18 0 15 -13 16 -12 3 3 -12 16 -9 23 23 58 20 22 36 47 36 56 0 8 4
12 10 9 5 -3 12 7 15 22 9 40 39 102 46 97 4 -2 5 6 1 18 -3 13 -1 19 5 15 6
-4 8 4 6 21 -4 22 -2 24 7 12 10 -13 11 -12 6 3 -3 10 -1 28 6 40 7 12 13 27
14 34 1 7 13 27 25 45 13 18 24 37 25 43 0 5 2 21 2 34 2 20 4 21 17 11 8 -7
12 -17 8 -24 -4 -6 1 -5 10 3 18 15 23 26 7 16 -6 -3 -13 1 -16 10 -6 15 43
126 59 133 4 2 4 8 1 14 -3 5 0 8 8 6 7 -2 14 2 15 7 0 6 -4 9 -9 7 -6 -1 4
15 21 36 17 22 28 42 24 46 -3 3 2 6 12 6 10 0 15 3 12 6 -13 13 13 43 33 39
12 -2 18 0 15 6 -4 5 -11 7 -16 4 -5 -4 -9 -2 -9 4 0 6 9 15 19 21 11 5 30 28
42 50 25 44 33 48 47 24 10 -18 -15 -57 -30 -48 -4 3 -8 -4 -8 -16 0 -12 -4
-18 -10 -15 -6 4 -10 3 -9 -2 3 -20 -15 -54 -26 -49 -7 2 -12 -1 -12 -7 0 -7
-1 -21 -2 -32 -1 -17 -3 -18 -12 -5 -8 12 -9 10 -4 -9 5 -16 4 -21 -4 -17 -6
4 -11 1 -11 -8 0 -8 -6 -21 -12 -28 -22 -22 -48 -75 -48 -95 0 -15 -2 -16 -10
-3 -8 12 -10 11 -10 -8 0 -12 -5 -32 -12 -45 -11 -22 -15 -30 -43 -80 -15 -27
-15 -28 2 -19 10 6 37 48 61 95 133 264 291 467 465 598 92 69 148 99 241 129
50 17 66 26 62 37 -3 8 -6 17 -6 19 0 11 -72 0 -130 -20z m86 -11 c-16 -8 -40
-12 -55 -9 -20 4 -23 3 -11 -5 12 -9 11 -11 -7 -11 -13 0 -23 -5 -23 -11 0 -6
-9 -8 -21 -4 -15 5 -19 4 -15 -4 4 -6 4 -11 -1 -10 -19 3 -34 -2 -29 -10 3 -4
-6 -6 -21 -3 -18 3 -24 1 -19 -7 4 -6 13 -8 19 -5 9 5 9 4 1 -5 -6 -7 -24 -14
-40 -16 -16 -2 -31 -4 -34 -4 -3 -1 2 -6 10 -11 10 -6 11 -10 3 -10 -7 0 -14
1 -16 3 -6 4 -37 -31 -37 -43 0 -6 -5 -8 -11 -5 -6 4 -8 14 -5 22 3 8 1 11 -5
8 -5 -4 -7 -15 -4 -26 6 -18 -4 -24 -29 -20 -5 1 -6 -6 -2 -15 4 -11 2 -15 -8
-11 -11 4 -13 1 -9 -10 5 -13 2 -15 -11 -10 -11 4 -16 2 -14 -6 2 -6 -2 -14
-7 -15 -19 -7 -35 -24 -29 -33 3 -5 -2 -9 -10 -9 -46 0 -12 50 76 114 15 11
25 23 22 27 -3 6 11 15 36 24 28 10 39 19 33 28 -3 6 -1 7 5 3 7 -4 12 -2 12
4 0 6 6 10 13 8 6 -2 14 2 16 7 7 18 35 33 50 27 9 -3 12 -1 7 7 -4 6 -4 10 1
9 4 -1 18 3 31 10 12 7 27 10 32 7 6 -4 13 1 16 9 4 10 18 15 40 14 19 -1 37
2 41 5 3 4 13 7 22 7 9 0 3 -7 -13 -15z m-459 -301 c3 -8 -1 -22 -9 -30 -13
-13 -16 -13 -28 0 -10 13 -10 19 0 31 16 19 29 19 37 -1z m-38 -43 c14 -25 1
-35 -15 -13 -16 20 -17 32 -4 32 5 0 14 -8 19 -19z"/>
<path d="M3080 4685 c-7 -9 -8 -15 -2 -15 5 0 12 7 16 15 3 8 4 15 2 15 -2 0
-9 -7 -16 -15z"/>
<path d="M3841 4914 c0 -11 3 -14 6 -6 3 7 2 16 -1 19 -3 4 -6 -2 -5 -13z"/>
<path d="M1544 4658 l-19 -23 23 19 c21 18 27 26 19 26 -2 0 -12 -10 -23 -22z"/>
<path d="M5183 4625 c-138 -30 -198 -90 -313 -314 -69 -136 -94 -175 -146
-228 -167 -171 -397 -184 -724 -43 -170 74 -234 91 -361 97 -138 7 -223 -9
-366 -67 -131 -54 -251 -136 -368 -254 -101 -102 -225 -268 -225 -303 0 -31
21 -43 77 -43 66 0 172 36 247 84 31 20 60 36 65 36 5 0 16 6 23 13 19 18 71
41 163 72 114 39 244 44 345 15 41 -12 89 -23 105 -25 17 -2 22 -2 12 1 -9 3
-15 9 -12 14 3 5 -3 8 -12 8 -10 -1 -43 6 -73 15 -68 21 -177 28 -250 16 -68
-10 -220 -59 -238 -76 -7 -7 -18 -13 -24 -13 -6 0 -26 -11 -45 -26 -18 -14
-38 -22 -45 -18 -6 4 -8 3 -5 -3 8 -12 -119 -77 -173 -88 -50 -12 -121 -6
-137 11 -13 13 -10 18 10 15 5 -1 5 4 2 10 -4 6 2 24 14 40 11 15 21 33 21 39
0 5 5 10 11 10 5 0 7 -5 3 -12 -4 -7 -3 -8 4 -4 6 4 9 13 6 20 -3 7 2 19 11
26 8 7 15 16 15 21 0 4 16 24 35 45 19 20 35 41 35 47 0 5 8 3 18 -4 15 -13
16 -12 4 3 -14 17 -1 35 18 23 5 -3 7 0 4 8 -3 8 3 20 12 28 16 12 17 12 11
-4 -5 -12 -3 -16 5 -11 8 5 9 2 5 -10 -4 -10 -3 -15 3 -11 6 3 10 1 10 -4 0
-10 -7 -12 -26 -10 -4 0 -13 -13 -22 -30 -8 -17 -18 -28 -23 -26 -4 3 -13 -4
-19 -15 -6 -11 -7 -20 -3 -20 4 0 2 -5 -5 -12 -8 -8 -15 -8 -29 3 -16 13 -17
12 -5 -3 12 -15 9 -23 -16 -60 -24 -35 -28 -47 -18 -59 17 -23 43 -29 56 -13
7 8 18 14 24 14 16 0 96 52 96 62 0 5 -17 -2 -37 -15 -40 -25 -122 -52 -130
-43 -5 4 16 38 57 91 8 10 50 56 93 100 42 45 74 85 70 90 -5 4 -3 6 3 2 5 -3
23 5 39 17 l29 23 -23 13 c-13 6 -21 7 -17 2 3 -6 2 -13 -4 -17 -6 -4 -8 -11
-5 -16 4 -5 -1 -9 -10 -9 -8 0 -29 -15 -46 -32 -19 -20 -29 -26 -25 -15 3 11
2 16 -4 12 -6 -3 -10 -2 -10 4 0 5 5 13 10 16 6 4 8 11 4 16 -3 6 2 9 12 7 10
-2 19 2 19 9 0 15 44 53 61 53 7 0 16 5 20 12 5 7 2 9 -7 4 -8 -4 -3 1 11 12
18 15 27 17 32 9 5 -8 8 -6 8 5 0 12 5 15 17 11 11 -4 14 -3 9 5 -4 7 7 18 26
28 32 17 33 17 18 -2 -14 -18 -14 -18 6 -1 11 9 26 17 33 17 7 0 9 5 5 12 -5
8 -2 9 10 5 10 -4 15 -3 11 3 -9 14 8 12 25 -2 12 -11 12 -10 1 5 -12 15 -11
17 5 18 11 1 25 1 33 0 8 -2 10 2 5 10 -5 9 -2 10 9 6 9 -3 19 -2 23 4 3 5 15
7 26 3 11 -3 18 -2 15 3 -3 5 7 8 21 7 15 -1 39 5 53 12 15 8 52 12 95 10 40
-2 61 0 49 5 -17 7 -16 8 8 8 15 1 27 -3 27 -9 0 -5 15 -10 33 -10 70 -1 105
-5 101 -12 -3 -5 7 -8 21 -8 15 0 24 -4 20 -10 -3 -5 -1 -10 4 -10 6 0 11 4
11 10 0 12 29 2 52 -17 9 -8 21 -13 25 -10 5 3 15 1 23 -5 12 -8 12 -9 -3 -4
-11 3 -16 2 -12 -5 4 -5 15 -7 26 -4 13 5 19 2 19 -10 0 -9 5 -13 10 -10 6 3
16 3 23 -2 6 -4 17 -8 22 -8 28 -3 64 -18 59 -26 -3 -5 3 -8 13 -7 10 1 51 -8
91 -20 40 -13 77 -20 84 -16 6 4 8 3 5 -3 -9 -15 199 -9 238 6 16 7 38 10 50
7 11 -3 27 -1 35 5 11 8 9 9 -10 4 -20 -5 -22 -4 -8 5 9 5 27 11 41 12 16 1
23 7 20 15 -4 9 4 13 23 13 23 0 26 2 14 10 -13 9 -13 10 1 10 8 0 21 -6 29
-12 12 -11 12 -10 1 4 -11 15 -8 23 30 59 24 23 44 47 44 53 1 6 6 10 12 9 6
-1 14 4 17 13 4 10 2 13 -6 8 -7 -4 -8 -3 -4 4 4 6 13 9 21 6 11 -5 12 -11 4
-27 -9 -18 -7 -18 10 3 10 13 17 28 14 33 -2 4 1 15 9 24 11 14 11 16 -1 9
-15 -10 -9 19 15 66 8 15 14 34 14 43 0 10 5 13 12 9 7 -4 8 -3 4 4 -11 18 4
37 16 21 8 -11 9 -10 4 4 -3 9 -3 24 1 33 5 13 7 13 14 2 6 -9 8 -5 7 12 -1
14 9 40 22 58 24 33 25 33 31 10 l5 -23 9 25 c4 14 8 30 9 35 2 18 46 56 57
50 5 -4 8 -1 7 7 -2 9 7 12 27 11 23 -2 27 0 15 8 -12 8 -9 10 12 6 20 -3 25
0 20 11 -4 11 -1 14 10 9 9 -3 33 -1 53 6 30 9 38 8 45 -3 11 -17 -5 -30 -37
-30 -46 0 -118 -42 -175 -101 -32 -34 -58 -64 -59 -67 -3 -26 -9 -44 -22 -62
-14 -21 -16 -21 -27 -3 -11 17 -11 17 -5 -2 9 -29 9 -27 -7 -63 -8 -18 -18
-29 -23 -25 -4 5 -5 3 -1 -4 8 -15 -12 -61 -42 -93 -12 -14 -25 -35 -28 -47
-4 -13 -10 -21 -14 -18 -5 3 -11 1 -15 -5 -4 -6 -11 -7 -17 -4 -7 4 -8 2 -4
-5 4 -6 12 -8 18 -5 6 4 3 -5 -8 -19 -22 -30 -36 -35 -28 -9 5 14 4 14 -4 2
-6 -8 -9 -17 -6 -21 8 -14 -18 -21 -28 -8 -7 10 -8 8 -3 -8 5 -18 0 -27 -27
-43 -18 -11 -38 -18 -45 -15 -7 2 -15 0 -18 -6 -4 -5 -11 -7 -16 -4 -5 3 -6
-2 -2 -11 4 -11 3 -15 -4 -11 -6 4 -13 3 -15 -2 -1 -5 -16 -11 -33 -14 -16 -3
-61 -10 -100 -17 -85 -14 -258 -10 -245 5 6 7 2 11 -10 11 -10 0 -16 -4 -14
-8 3 -4 -6 -4 -20 1 -36 14 -44 -15 -11 -49 26 -27 34 -47 13 -34 -7 4 -8 3
-4 -5 4 -7 13 -10 19 -8 18 6 48 -13 41 -25 -4 -6 -3 -8 3 -5 12 7 75 -48 65
-58 -4 -4 0 -5 8 -3 8 2 14 -2 13 -9 -2 -7 3 -10 10 -7 7 2 22 -4 33 -14 10
-10 26 -16 33 -14 9 3 11 0 6 -8 -6 -10 -4 -12 9 -7 22 9 64 -12 47 -22 -7 -5
3 -8 21 -8 18 0 47 -3 63 -7 59 -14 181 -18 218 -8 20 6 37 7 37 2 0 -5 13 -2
30 6 16 9 35 12 41 8 7 -4 9 -3 6 2 -3 6 28 25 69 44 41 19 78 39 82 44 14 22
107 91 118 88 11 -2 39 53 35 71 0 4 6 10 14 13 8 4 15 15 15 26 0 10 4 16 10
13 6 -4 7 1 3 11 -5 13 -3 15 7 9 10 -6 12 -4 7 9 -4 10 -1 19 7 22 7 3 13 11
14 19 1 8 3 22 4 30 1 8 5 15 10 15 5 0 7 -10 3 -22 -3 -13 -11 -41 -16 -63
-20 -72 -43 -115 -59 -109 -8 3 -11 2 -7 -2 4 -4 1 -14 -6 -22 -10 -13 -9 -14
3 -8 8 5 2 -3 -14 -18 -16 -14 -26 -26 -21 -26 4 0 2 -7 -5 -15 -7 -8 -16 -12
-21 -9 -5 3 -8 0 -7 -8 2 -7 -4 -12 -12 -10 -8 2 -12 1 -8 -3 10 -11 -44 -53
-64 -50 -11 2 -15 -1 -12 -10 4 -8 -5 -15 -25 -20 -19 -4 -28 -11 -25 -17 4
-7 2 -8 -5 -4 -6 4 -24 -2 -39 -12 -21 -16 -32 -18 -46 -10 -12 7 -17 7 -12 0
3 -5 -6 -13 -22 -17 -15 -5 -31 -9 -37 -11 -53 -16 -94 -20 -170 -17 -123 6
-124 6 -118 17 4 5 -1 7 -10 3 -10 -3 -17 -2 -17 3 0 5 -7 6 -17 3 -10 -4 -14
-2 -9 5 4 7 -1 9 -16 7 -13 -3 -34 5 -54 20 -17 13 -34 22 -37 18 -9 -8 -37
23 -29 32 4 5 -1 5 -10 2 -15 -5 -35 8 -91 61 -11 9 -23 16 -28 15 -4 -2 -21
9 -36 23 -20 19 -22 23 -7 18 19 -7 19 -6 -1 9 -10 8 -26 12 -33 9 -9 -3 -13
0 -10 8 2 8 -15 27 -41 46 -25 17 -45 39 -45 48 1 12 -2 13 -18 5 -11 -6 -18
-7 -15 -2 3 5 -3 17 -14 26 -10 9 -19 14 -19 10 0 -4 -7 3 -16 15 -8 12 -21
21 -27 20 -15 -3 -70 26 -86 45 -7 9 -21 13 -33 9 -14 -3 -19 -1 -14 6 5 8 -1
12 -16 12 -18 0 -20 2 -8 10 9 6 -6 7 -44 3 -38 -4 -57 -3 -53 4 4 6 -33 9
-106 7 -132 -4 -140 -5 -189 -27 -21 -9 -48 -17 -62 -17 -14 0 -28 -5 -31 -10
-4 -6 -11 -7 -17 -4 -7 5 -8 2 -3 -6 6 -10 3 -12 -13 -8 -12 4 -20 2 -17 -2 9
-14 -40 -41 -60 -34 -13 5 -16 4 -11 -4 4 -7 1 -12 -9 -12 -9 0 -14 -4 -11 -8
7 -12 -63 -44 -77 -36 -7 4 -5 -1 4 -10 14 -15 21 -13 97 33 257 154 507 168
724 40 38 -22 132 -95 210 -163 219 -188 354 -258 520 -272 256 -22 523 126
634 350 41 84 56 169 32 179 -23 8 -34 -3 -59 -63 -55 -133 -156 -241 -288
-309 -226 -116 -436 -89 -661 85 -41 31 -88 70 -105 86 l-30 28 35 -11 c66
-19 259 -23 332 -5 206 48 317 155 452 430 33 68 75 137 99 164 47 50 125 92
174 92 29 0 63 21 63 38 -1 36 -43 45 -127 27z m-163 -125 c0 -5 -4 -10 -10
-10 -5 0 -10 5 -10 10 0 6 5 10 10 10 6 0 10 -4 10 -10z m-175 -320 c1 -10 -2
-17 -6 -14 -4 2 -7 13 -6 24 2 23 10 17 12 -10z m317 -362 c-7 -7 -12 -8 -12
-2 0 14 12 26 19 19 2 -3 -1 -11 -7 -17z"/>
<path d="M1200 4556 c0 -2 8 -10 18 -17 15 -13 16 -12 3 4 -13 16 -21 21 -21
13z"/>
<path d="M3658 4363 c7 -3 16 -2 19 1 4 3 -2 6 -13 5 -11 0 -14 -3 -6 -6z"/>
<path d="M3293 4350 c-34 -14 -28 -21 7 -9 17 6 30 13 30 15 0 6 -12 4 -37 -6z"/>
<path d="M2775 4269 c-4 -6 -5 -12 -2 -15 2 -3 7 2 10 11 7 17 1 20 -8 4z"/>
<path d="M4749 4063 c-13 -16 -12 -17 4 -4 9 7 17 15 17 17 0 8 -8 3 -21 -13z"/>
<path d="M4770 3936 c0 -2 7 -7 16 -10 8 -3 12 -2 9 4 -6 10 -25 14 -25 6z"/>
<path d="M4315 3910 c3 -6 -2 -10 -12 -11 -10 0 -13 -3 -6 -5 7 -3 20 -1 29 4
15 8 15 9 0 15 -10 4 -15 3 -11 -3z"/>
<path d="M2501 3864 c0 -11 3 -14 6 -6 3 7 2 16 -1 19 -3 4 -6 -2 -5 -13z"/>
<path d="M2575 3810 c-3 -6 1 -7 9 -4 18 7 21 14 7 14 -6 0 -13 -4 -16 -10z"/>
<path d="M5130 3775 c0 -8 2 -15 4 -15 2 0 6 7 10 15 3 8 1 15 -4 15 -6 0 -10
-7 -10 -15z"/>
<path d="M3335 3776 c-5 -2 -37 -12 -70 -22 -71 -21 -187 -72 -196 -86 -3 -5
-8 -8 -10 -6 -8 6 -79 -42 -79 -54 0 -8 3 -9 8 -3 8 11 38 31 62 42 8 3 27 15
42 25 14 10 32 18 40 18 7 0 24 6 38 13 50 26 150 58 160 52 6 -4 16 -3 23 2
24 18 169 14 247 -7 41 -11 80 -22 85 -24 6 -2 20 -7 32 -11 13 -4 20 -12 17
-17 -3 -5 0 -9 7 -7 29 3 35 -2 36 -36 1 -19 -3 -33 -7 -30 -5 3 -11 1 -15 -5
-3 -5 0 -10 7 -10 10 0 10 -2 0 -9 -8 -4 -14 -12 -15 -17 -1 -5 -6 -8 -10 -6
-5 1 -6 -2 -2 -8 15 -25 -40 -59 -61 -37 -7 7 36 77 47 77 5 0 9 7 9 15 0 28
-15 14 -58 -53 -23 -37 -56 -82 -72 -99 -32 -35 -38 -48 -16 -40 7 3 20 0 27
-6 11 -10 11 -9 1 5 -11 14 -8 21 17 47 17 18 31 36 31 42 0 6 6 6 19 0 10 -6
21 -7 25 -3 4 3 4 -1 0 -11 -3 -9 -11 -14 -17 -10 -5 3 -7 1 -4 -4 9 -14 -32
-65 -45 -57 -6 4 -8 2 -5 -3 6 -10 -18 -38 -32 -38 -3 0 -5 -5 -3 -12 2 -8 -3
-10 -13 -7 -8 4 -17 0 -21 -9 -3 -9 -13 -13 -22 -10 -13 4 -14 3 -3 -5 16 -12
-3 -27 -21 -16 -7 4 -10 4 -6 -1 8 -8 -56 -58 -78 -61 -6 -1 -27 -9 -45 -17
-40 -18 -88 -32 -144 -43 -22 -4 -43 -8 -47 -9 -5 -2 -23 -3 -40 -4 -26 -2
-29 -4 -14 -10 25 -10 143 11 225 39 171 60 322 195 403 362 48 99 45 104 -97
155 -59 22 -91 26 -200 29 -71 2 -134 2 -140 0z"/>
<path d="M3315 3614 c-50 -14 -188 -79 -209 -99 -26 -26 -174 -133 -203 -149
-37 -19 -44 -50 -14 -66 26 -13 23 -14 57 15 16 14 33 25 37 25 9 0 17 6 62
46 140 123 311 210 430 216 28 2 45 8 45 16 0 16 -138 14 -205 -4z m65 -16
c-14 -6 -33 -10 -42 -9 -10 1 -18 -2 -18 -7 0 -11 -38 -25 -59 -22 -8 1 -10
-3 -5 -11 5 -9 1 -11 -14 -7 -12 4 -20 3 -17 -2 2 -4 -16 -18 -42 -31 -25 -13
-69 -45 -97 -71 -28 -26 -57 -48 -64 -48 -7 0 -11 -4 -8 -9 3 -5 -8 -14 -24
-21 -17 -7 -30 -16 -30 -20 0 -4 -14 -13 -31 -20 -23 -10 -33 -10 -42 -1 -8 8
-8 14 -1 19 5 4 37 25 69 46 33 22 65 44 70 50 6 6 29 24 53 40 23 16 42 33
42 37 0 5 12 9 27 9 14 0 24 3 20 6 -6 7 74 52 101 58 10 2 25 6 35 11 9 4 26
5 37 2 11 -3 20 -1 20 4 0 5 10 9 23 8 21 0 21 -1 -3 -11z"/>
<path d="M5101 3476 c-9 -11 -8 -40 5 -128 24 -156 24 -444 1 -598 -74 -485
-281 -901 -616 -1239 -224 -226 -466 -387 -750 -502 -63 -25 -119 -53 -125
-62 -16 -25 8 -67 39 -67 35 0 227 79 345 142 180 95 429 276 414 300 -5 7 -2
8 6 3 15 -10 204 175 299 295 240 300 402 661 472 1055 38 212 31 678 -12 793
-10 26 -59 31 -78 8z m62 -42 c4 -21 6 -47 3 -57 -2 -9 0 -15 4 -12 30 18 34
-490 5 -620 -9 -44 -17 -94 -16 -112 0 -18 -6 -47 -14 -66 -8 -19 -15 -51 -17
-71 -1 -20 -5 -36 -9 -36 -4 0 -12 -30 -19 -67 -7 -36 -19 -78 -26 -92 -8 -14
-14 -34 -14 -43 0 -10 -4 -18 -8 -18 -5 0 -14 -22 -22 -49 -7 -28 -18 -49 -23
-48 -5 1 -12 -4 -15 -12 -3 -10 0 -11 9 -5 9 5 8 -1 -4 -19 -10 -15 -15 -33
-11 -39 4 -6 3 -8 -3 -5 -5 3 -26 -29 -47 -71 -45 -94 -75 -143 -107 -179 -13
-14 -18 -23 -11 -19 22 13 13 -1 -28 -44 -22 -23 -40 -49 -40 -58 0 -15 -2
-15 -10 -2 -8 12 -10 10 -10 -10 -1 -28 -53 -86 -69 -75 -7 4 -8 0 -4 -11 4
-12 3 -15 -5 -10 -8 4 -10 2 -6 -7 3 -8 -9 -26 -28 -42 -18 -15 -33 -31 -33
-36 0 -15 -13 -20 -21 -8 -4 7 -3 10 2 6 6 -3 11 4 11 15 2 19 1 19 -11 2 -8
-10 -12 -24 -9 -30 2 -7 -6 -19 -19 -28 -13 -9 -23 -20 -23 -24 0 -4 -6 -7
-13 -7 -8 0 -18 -9 -24 -19 -8 -15 -8 -17 2 -11 9 5 11 4 6 -3 -4 -7 -13 -12
-19 -12 -15 -1 -67 -46 -67 -59 0 -11 -71 -56 -84 -52 -5 1 -6 -5 -3 -13 4
-11 1 -13 -10 -9 -12 5 -14 3 -8 -7 6 -10 4 -12 -9 -7 -9 4 -15 3 -12 -2 3 -4
-6 -19 -19 -31 -14 -13 -25 -20 -25 -16 0 4 -11 -2 -25 -13 -15 -11 -35 -18
-45 -16 -22 4 -27 -10 -7 -19 6 -4 -2 -4 -20 -1 -18 2 -35 0 -38 -5 -3 -6 1
-7 9 -4 25 9 18 -9 -10 -29 -14 -10 -32 -16 -39 -13 -8 3 -14 0 -12 -6 2 -12
-3 -14 -40 -17 -14 -1 -15 -3 -5 -10 10 -6 7 -10 -12 -15 -14 -3 -26 -11 -26
-17 0 -6 -8 -5 -22 2 -13 6 -20 8 -16 4 11 -11 -33 -47 -50 -40 -7 3 -20 -2
-28 -10 -9 -8 -24 -15 -35 -15 -13 0 -18 -4 -13 -12 5 -7 2 -9 -7 -6 -8 3 -23
0 -33 -8 -11 -7 -23 -11 -29 -7 -5 3 -12 1 -16 -4 -14 -23 -48 -23 -67 -1 -18
20 -18 21 -1 15 10 -4 16 -3 12 3 -9 14 29 30 46 19 7 -5 19 -9 24 -9 6 0 4 4
-3 8 -14 9 84 58 107 54 7 -2 10 1 6 7 -3 7 2 11 14 11 11 0 26 6 33 13 7 8
21 13 31 11 10 -1 14 2 11 8 -5 7 3 9 22 4 19 -4 24 -3 15 2 -19 13 3 25 32
17 21 -7 21 -6 4 7 -17 13 -14 15 37 32 36 11 54 21 50 28 -5 7 -1 9 9 5 10
-4 16 -2 14 5 -2 13 73 58 85 51 4 -2 5 4 1 14 -5 14 0 13 23 -7 24 -21 26
-22 10 -3 -18 22 -18 23 0 30 27 10 54 35 48 45 -3 4 1 8 9 8 8 0 25 11 38 25
13 13 27 25 31 25 4 0 22 14 39 32 25 27 32 30 41 18 8 -12 9 -11 4 4 -7 21
11 49 27 39 5 -3 7 -1 4 5 -4 5 11 23 33 40 22 16 37 32 33 35 -3 4 1 7 11 7
10 0 14 5 10 12 -4 7 -3 8 4 4 7 -4 12 -1 12 7 0 19 36 51 49 43 5 -4 13 -2
16 4 4 6 3 10 -2 9 -25 -4 -22 4 9 35 20 19 33 37 30 40 -3 3 2 6 12 6 11 0
15 -5 10 -12 -4 -7 -3 -9 1 -5 12 10 15 38 4 31 -17 -10 -9 3 21 35 17 17 28
37 24 43 -4 7 -3 8 4 4 7 -4 12 -1 12 7 0 8 12 27 27 43 15 16 27 31 27 34 1
3 4 4 8 3 4 -2 4 5 1 14 -5 12 -3 14 7 8 10 -6 12 -3 8 13 -4 12 0 26 9 33 15
13 44 63 40 70 -1 2 4 -2 11 -10 6 -8 12 -19 12 -25 0 -5 3 -7 6 -4 3 4 -2 21
-11 38 -9 18 -12 30 -7 26 8 -4 22 24 21 42 0 1 7 10 16 18 8 9 15 21 15 29 0
7 10 35 22 62 12 26 22 53 22 58 1 6 3 12 6 15 8 8 52 133 55 158 2 13 9 30
16 38 6 8 9 17 6 20 -3 3 1 29 10 57 8 29 17 66 18 82 2 17 6 41 9 55 3 14 8
43 11 65 3 22 10 72 15 110 16 115 2 482 -21 542 -7 18 -6 22 3 17 8 -5 9 -2
5 10 -4 10 -7 22 -7 27 0 6 -5 7 -12 3 -7 -5 -8 -3 -3 5 4 7 16 10 27 8 16 -5
17 -3 6 10 -11 14 -11 15 2 11 8 -2 18 -22 23 -44z"/>
<path d="M5171 2894 c0 -11 3 -14 6 -6 3 7 2 16 -1 19 -3 4 -6 -2 -5 -13z"/>
<path d="M5071 2384 c0 -11 3 -14 6 -6 3 7 2 16 -1 19 -3 4 -6 -2 -5 -13z"/>
<path d="M4946 2092 c-2 -4 -1 -14 3 -21 6 -9 11 -10 15 -2 4 6 2 11 -4 11 -6
0 -8 5 -5 10 3 6 4 10 1 10 -3 0 -7 -4 -10 -8z"/>
<path d="M4840 1926 c0 -2 7 -7 16 -10 8 -3 12 -2 9 4 -6 10 -25 14 -25 6z"/>
<path d="M4146 1178 c3 -5 10 -6 15 -3 13 9 11 12 -6 12 -8 0 -12 -4 -9 -9z"/>
<path d="M4179 1173 c-13 -16 -12 -17 4 -4 16 13 21 21 13 21 -2 0 -10 -8 -17
-17z"/>
<path d="M3670 920 c-9 -6 -10 -10 -3 -10 6 0 15 5 18 10 8 12 4 12 -15 0z"/>
<path d="M3510 3393 c-101 -79 -249 -129 -410 -138 -45 -2 -90 -7 -101 -10
-29 -9 -23 -37 16 -75 19 -19 35 -29 35 -24 0 6 -11 21 -25 34 -25 23 -35 47
-15 35 6 -4 9 -1 8 7 -2 9 12 14 47 16 147 7 298 38 316 65 4 5 18 10 32 10
14 1 23 5 21 8 -3 6 70 50 77 46 2 -1 3 0 2 2 -4 6 44 41 57 41 6 0 8 5 5 10
-9 15 -16 12 -65 -27z"/>
<path d="M3120 3162 c0 -5 14 -21 30 -37 36 -35 41 -16 5 20 -27 26 -35 30
-35 17z"/>
<path d="M2265 3149 c-88 -11 -158 -61 -239 -171 -29 -40 -28 -45 7 -26 12 6
64 15 116 19 137 12 166 24 286 119 28 22 58 40 68 40 9 0 17 5 17 11 0 6 -11
8 -27 5 -16 -3 -62 -2 -103 2 -41 4 -98 4 -125 1z m173 -34 c3 -3 -2 -5 -11
-5 -9 0 -17 -4 -17 -10 0 -5 -10 -14 -21 -21 -15 -8 -19 -8 -15 0 11 17 0 13
-58 -20 -42 -23 -71 -31 -128 -36 l-73 -5 35 27 c19 14 50 33 68 40 36 16 146
24 158 12 14 -14 26 -7 14 8 -7 8 -26 15 -42 15 -16 0 -27 4 -24 9 5 8 104 -3
114 -14z m-208 7 c0 -8 -43 -32 -58 -32 -6 0 49 40 56 40 1 0 2 -4 2 -8z m57
2 c-3 -3 -12 -4 -19 -1 -8 3 -5 6 6 6 11 1 17 -2 13 -5z m-151 -60 c-32 -32
-33 -48 -5 -61 18 -7 15 -9 -20 -9 -39 1 -60 15 -23 17 9 0 12 3 5 5 -10 5 49
74 64 74 3 0 -6 -12 -21 -26z m214 -18 c0 -3 -4 -8 -10 -11 -5 -3 -10 -1 -10
4 0 6 5 11 10 11 6 0 10 -2 10 -4z m-75 -36 c-27 -12 -43 -12 -25 0 8 5 22 9
30 9 10 0 8 -3 -5 -9z"/>
<path d="M3065 3130 c-8 -13 15 -24 27 -12 6 6 4 11 -6 15 -8 3 -18 2 -21 -3z"/>
<path d="M3090 3105 c0 -9 42 -47 47 -42 2 3 -5 15 -16 26 -21 21 -31 26 -31
16z"/>
<path d="M3190 3092 c0 -5 19 -38 42 -73 50 -75 63 -98 94 -161 27 -54 29 -62
12 -52 -7 4 -8 3 -4 -5 4 -6 12 -9 17 -6 5 4 9 -3 9 -15 0 -14 4 -19 12 -14 8
5 9 2 5 -10 -4 -9 2 -32 13 -50 17 -32 44 -108 45 -131 0 -5 4 -13 9 -17 5 -3
9 -20 9 -37 0 -17 4 -31 8 -31 13 0 18 -42 8 -68 -9 -22 -8 -24 6 -12 9 7 15
9 14 4 -5 -16 40 -190 61 -239 18 -41 34 -100 31 -114 -1 -7 2 -10 7 -7 10 6
32 -35 32 -60 0 -8 5 -12 10 -9 13 8 13 -1 -2 -28 -10 -19 -9 -20 3 -10 12 10
17 8 27 -7 6 -10 8 -20 4 -23 -4 -2 -1 -2 6 -1 6 2 12 -3 12 -10 0 -7 9 -23
20 -36 11 -13 20 -26 20 -30 0 -4 28 -35 63 -70 34 -35 61 -68 59 -73 -1 -5 2
-6 8 -2 6 4 27 -7 48 -23 20 -16 47 -33 60 -36 12 -4 20 -12 17 -17 -3 -5 1
-6 9 -3 9 3 16 1 16 -6 0 -6 4 -8 10 -5 5 3 20 0 32 -7 51 -28 155 -47 252
-48 l99 0 -19 -21 c-17 -19 -26 -20 -119 -15 -55 3 -111 6 -125 6 -20 0 -22 2
-10 11 11 8 7 9 -17 4 -29 -6 -32 -4 -27 12 4 12 3 14 -3 5 -8 -10 -16 -10
-41 1 -18 7 -30 16 -27 19 5 4 -2 6 -44 10 -11 1 -17 6 -15 10 3 4 0 9 -5 9
-21 3 -26 5 -61 27 -19 12 -35 27 -35 34 0 7 -8 12 -16 10 -28 -4 -213 210
-207 239 2 8 -3 13 -9 12 -7 -2 -13 6 -13 17 0 11 -4 20 -10 20 -5 0 -10 7
-10 16 0 8 -7 22 -15 31 -10 9 -13 23 -9 35 4 15 3 18 -7 13 -9 -6 -10 -3 -5
11 4 10 4 15 0 11 -8 -8 -43 82 -48 124 -2 14 -6 32 -10 38 -12 19 -68 233
-68 259 0 12 -5 22 -10 22 -6 0 -8 11 -6 25 3 13 1 22 -3 19 -5 -3 -9 2 -9 11
0 9 -7 27 -16 40 -9 14 -13 25 -10 25 4 0 -1 14 -9 31 -9 17 -14 33 -11 36 3
3 -4 19 -15 34 -11 16 -19 34 -18 41 1 7 1 20 0 28 -1 13 -2 13 -12 0 -8 -11
-9 -6 -5 20 3 19 2 29 -2 22 -6 -8 -16 4 -31 38 -13 28 -34 64 -48 80 -14 17
-21 35 -17 42 4 7 3 10 -1 5 -5 -4 -20 3 -33 15 -29 26 -23 13 26 -55 88 -123
181 -359 252 -642 102 -408 255 -635 520 -775 53 -28 199 -61 296 -67 l101 -6
59 56 59 56 -40 -14 c-60 -21 -216 -19 -309 5 -116 29 -227 92 -311 174 -149
147 -218 286 -306 621 -22 82 -56 197 -75 255 -35 105 -131 315 -156 341 -8 8
-28 38 -47 67 -33 51 -41 60 -41 44z"/>
<path d="M2886 2662 c-28 -32 -173 -100 -261 -123 -63 -16 -129 -22 -315 -29
-224 -8 -248 -11 -364 -47 -11 -4 -56 -24 -100 -46 -147 -71 -212 -81 -249
-35 -36 46 -79 110 -75 113 1 2 32 18 68 37 63 33 83 59 62 80 -6 6 -24 1 -50
-16 -22 -14 -52 -28 -66 -32 -14 -3 -26 -10 -26 -16 0 -5 9 -7 20 -3 11 3 28
1 37 -5 16 -10 15 -11 -5 -7 -12 3 -20 2 -17 -3 3 -4 -4 -10 -15 -13 -21 -5
-28 -41 -10 -52 6 -4 7 -11 4 -17 -4 -7 -2 -8 4 -4 7 4 13 2 13 -3 1 -6 2 -16
3 -22 2 -16 76 -79 95 -80 9 -1 33 -2 54 -3 25 -2 34 0 25 6 -9 7 -4 8 14 5
15 -2 25 -1 23 3 -7 12 72 43 87 35 7 -5 10 -5 6 0 -5 5 7 17 24 28 36 21 188
68 199 61 4 -2 9 0 11 4 1 5 20 12 41 15 22 3 35 2 32 -4 -4 -5 1 -9 10 -9 9
0 13 5 10 11 -5 7 34 10 131 8 77 -2 168 0 204 3 36 4 81 8 100 8 26 0 31 3
20 10 -12 8 -11 10 7 10 25 0 145 45 179 67 12 7 28 11 36 8 8 -3 23 7 37 25
26 36 24 61 -3 32z m-1269 -98 c-20 -21 -28 -24 -43 -16 -16 9 -15 12 16 25
50 22 54 20 27 -9z"/>
<path d="M1451 2624 c0 -11 3 -14 6 -6 3 7 2 16 -1 19 -3 4 -6 -2 -5 -13z"/>
<path d="M2825 2590 c-4 -6 -23 -19 -43 -30 -20 -11 -44 -24 -52 -29 -24 -15
-87 -41 -98 -41 -6 0 -13 -4 -16 -9 -9 -14 59 4 104 28 88 46 148 91 121 91
-5 0 -13 -5 -16 -10z"/>
<path d="M2250 2463 c0 -5 -30 -9 -67 -10 -117 -3 -187 -21 -321 -84 -45 -21
-88 -39 -95 -39 -7 0 -22 -7 -33 -15 -38 -29 13 -17 107 26 194 87 212 91 434
96 214 4 245 7 245 24 0 6 -7 8 -16 5 -34 -13 -234 -19 -234 -7 0 6 -4 11 -10
11 -5 0 -10 -3 -10 -7z"/>
<path d="M2536 2457 c3 -10 9 -15 12 -12 3 3 0 11 -7 18 -10 9 -11 8 -5 -6z"/>
<path d="M2604 2432 c1 -17 4 -28 8 -26 16 10 34 -63 49 -206 7 -70 7 -108 -2
-145 -7 -27 -12 -60 -11 -72 1 -11 -7 -47 -18 -78 -11 -31 -19 -60 -18 -63 4
-22 -16 -91 -25 -85 -5 3 -8 2 -5 -3 3 -5 0 -56 -7 -114 -11 -103 -7 -198 12
-270 9 -32 19 -56 56 -140 23 -50 86 -137 126 -173 24 -21 39 -42 35 -49 -4
-6 -3 -8 4 -4 13 8 88 -42 84 -56 -1 -5 2 -6 8 -3 6 4 20 -3 31 -16 10 -12 19
-19 19 -15 0 10 72 -33 88 -52 6 -9 12 -11 12 -5 0 6 9 9 21 6 16 -5 18 -8 7
-15 -10 -7 -9 -8 5 -4 15 5 64 -10 77 -24 6 -7 68 -25 175 -51 44 -11 87 -22
95 -26 8 -3 30 -7 49 -9 19 -2 37 -8 41 -14 4 -6 11 -10 16 -9 21 4 41 -2 60
-17 18 -14 18 -15 -4 -4 -12 6 -27 8 -32 5 -6 -3 -10 -2 -10 3 0 5 -11 7 -25
4 -15 -2 -25 0 -25 7 0 7 -9 9 -26 5 -21 -5 -25 -4 -19 6 5 9 4 11 -4 6 -13
-9 -121 12 -121 23 0 4 -14 5 -31 3 -23 -3 -30 -1 -25 7 6 8 0 10 -18 5 -16
-4 -26 -2 -26 5 0 6 -7 8 -15 5 -8 -4 -15 -2 -15 4 0 6 -10 8 -22 4 -13 -3
-19 -1 -15 5 5 7 0 9 -12 6 -10 -3 -22 0 -25 6 -4 5 -14 7 -23 4 -11 -4 -14
-3 -9 5 6 11 -12 17 -36 13 -5 0 -8 3 -8 7 0 5 -6 9 -14 9 -21 0 -86 33 -86
43 0 5 -7 6 -17 3 -11 -4 -14 -3 -9 5 5 8 1 10 -10 5 -13 -5 -16 -3 -11 10 4
12 2 14 -10 10 -11 -4 -14 -3 -9 6 4 6 4 10 -1 9 -34 -9 -242 170 -226 195 3
6 1 7 -5 3 -8 -4 -12 0 -12 11 0 14 -2 15 -9 4 -11 -16 1 -33 89 -121 76 -77
132 -117 240 -171 135 -68 237 -99 498 -153 160 -33 229 -60 275 -108 20 -21
37 -45 37 -53 0 -8 4 -15 9 -15 20 0 -14 85 -49 120 -49 49 -101 71 -270 115
-412 105 -601 205 -749 394 -89 115 -126 235 -125 406 2 107 7 139 45 290 41
161 44 177 43 310 0 120 -3 150 -23 210 -28 83 -49 113 -47 67z m1076 -1767
c0 -2 -9 -3 -19 -2 -11 0 -18 5 -15 9 4 6 34 0 34 -7z"/>
<path d="M2554 2410 c59 -190 62 -287 12 -492 -57 -236 -60 -258 -60 -383 1
-139 16 -210 70 -322 26 -53 39 -71 45 -62 12 20 11 31 -3 23 -8 -5 -9 -2 -5
10 4 10 3 15 -3 11 -5 -3 -12 6 -16 20 -3 14 -9 25 -13 25 -12 0 -43 109 -35
122 4 7 3 8 -4 4 -8 -4 -12 0 -13 11 0 10 -2 34 -5 53 -9 65 -6 219 5 267 20
89 40 168 50 201 5 17 7 32 4 32 -3 0 -1 6 5 13 5 6 13 40 17 74 4 40 11 61
18 56 6 -4 7 -1 2 7 -9 15 -9 130 0 164 5 15 4 17 -3 7 -7 -9 -13 2 -20 40
-19 94 -25 113 -40 129 -14 13 -15 12 -8 -10z"/>
<path d="M2093 2342 c-6 -4 -25 -44 -41 -89 -61 -167 -76 -292 -47 -390 17
-57 39 -83 49 -58 3 9 2 14 -3 11 -9 -6 -38 23 -33 33 1 3 -2 28 -9 54 -6 26
-8 62 -4 80 3 18 7 46 9 62 1 17 7 29 14 28 8 -2 9 4 2 22 -5 14 -6 25 -1 25
4 0 6 12 3 26 -3 19 -1 25 6 20 8 -5 10 -2 6 8 -3 9 -1 16 5 16 6 0 8 7 4 17
-4 9 -2 14 3 11 5 -4 10 7 11 23 3 34 29 89 44 89 16 0 23 -31 11 -51 -7 -10
-12 -29 -12 -41 0 -19 -2 -20 -11 -8 -8 11 -9 8 -4 -13 4 -21 3 -27 -6 -21 -9
5 -10 2 -6 -10 4 -9 1 -31 -6 -49 -8 -18 -12 -38 -9 -46 2 -8 0 -11 -5 -8 -5
3 -10 -36 -11 -91 -2 -86 0 -102 23 -146 13 -27 22 -53 19 -58 -3 -4 0 -7 8
-6 7 2 12 -4 10 -12 -2 -8 -1 -12 3 -9 3 4 17 -4 30 -17 13 -13 31 -24 38 -24
8 0 18 -7 21 -16 9 -24 7 -31 -4 -14 -6 9 -10 10 -10 3 0 -8 -11 -10 -32 -7
-18 3 -42 7 -53 8 -11 1 -36 9 -55 17 -19 9 -52 22 -72 29 -20 8 -35 17 -32
22 3 4 -5 8 -16 8 -15 0 -20 5 -17 14 4 9 1 13 -6 10 -16 -6 -74 56 -113 121
-32 51 -68 175 -63 217 2 23 -35 118 -46 118 -3 0 -1 -8 4 -18 5 -10 18 -65
29 -122 26 -132 43 -180 87 -240 77 -105 169 -159 330 -195 101 -23 129 14 49
64 -124 77 -147 229 -70 465 20 59 36 110 36 111 0 7 -32 35 -38 35 -4 0 -12
-4 -19 -8z"/>
<path d="M2616 2317 c3 -10 9 -15 12 -12 3 3 0 11 -7 18 -10 9 -11 8 -5 -6z"/>
<path d="M1740 2243 c29 -47 42 -101 41 -176 0 -21 4 -35 10 -32 5 4 9 -3 9
-15 0 -65 105 -197 192 -241 50 -26 40 -7 -15 28 -23 14 -62 49 -89 77 -51 54
-81 130 -94 236 -9 73 -29 129 -56 151 -31 27 -30 24 2 -28z"/>
<path d="M1951 2054 c0 -11 3 -14 6 -6 3 7 2 16 -1 19 -3 4 -6 -2 -5 -13z"/>
<path d="M3655 1880 c-3 -5 -1 -10 4 -10 6 0 11 5 11 10 0 6 -2 10 -4 10 -3 0
-8 -4 -11 -10z"/>
<path d="M1314 1748 c-4 -7 -4 -10 1 -6 4 4 15 2 24 -5 14 -11 14 -10 2 6 -16
20 -18 21 -27 5z"/>
<path d="M4860 1741 c0 -6 4 -13 10 -16 6 -3 7 1 4 9 -7 18 -14 21 -14 7z"/>
<path d="M1286 1517 c3 -10 9 -15 12 -12 3 3 0 11 -7 18 -10 9 -11 8 -5 -6z"/>
<path d="M4459 1293 c-13 -16 -12 -17 4 -4 9 7 17 15 17 17 0 8 -8 3 -21 -13z"/>
<path d="M1880 1260 c-8 -5 -10 -10 -5 -10 6 0 17 5 25 10 8 5 11 10 5 10 -5
0 -17 -5 -25 -10z"/>
<path d="M1683 1145 c0 -8 4 -12 9 -9 5 3 6 10 3 15 -9 13 -12 11 -12 -6z"/>
<path d="M3739 703 c-13 -16 -12 -17 4 -4 16 13 21 21 13 21 -2 0 -10 -8 -17
-17z"/>
</g>
</svg>
